<?xml version="1.0" encoding="utf-8"?><!DOCTYPE svg PUBLIC "-//W3C//DTD SVG 1.1//EN" "http://www.w3.org/Graphics/SVG/1.1/DTD/svg11.dtd"><svg version="1.1" xmlns="http://www.w3.org/2000/svg" xmlns:xlink="http://www.w3.org/1999/xlink" x="0" y="0" width="48" height="48" viewBox="0 0 1024 1024"><path d="M934 512L934 512Q934 627 876 725L876 725Q820 820 725 876L725 876Q627 934 512 934 397 934 299 876L299 876Q204 820 148 725L148 725Q90 627 90 512 90 397 148 299L148 299Q204 204 299 148L299 148Q397 90 512 90 627 90 725 148L725 148Q820 204 876 299L876 299Q934 397 934 512ZM697 512L697 512Q697 501 689 493.5 681 486 670 486L670 486 419 486 529 375Q535 367 534.5 356.5 534 346 526 339 518 332 507.5 332.5 497 333 489 340L489 340 338 492Q332 500 332.5 510 333 520 340 527L340 527 492 678Q500 684 510 683.5 520 683 527 676L527 676 529 674Q535 666 534.5 656 534 646 527 639L527 639 427 538 673 538Q683 537 690 529.5 697 522 697 512Z"/></svg>