<?xml version="1.0" encoding="utf-8"?><!DOCTYPE svg PUBLIC "-//W3C//DTD SVG 1.1//EN" "http://www.w3.org/Graphics/SVG/1.1/DTD/svg11.dtd"><svg version="1.1" xmlns="http://www.w3.org/2000/svg" xmlns:xlink="http://www.w3.org/1999/xlink" x="0" y="0" width="48" height="48" viewBox="0 0 1024 1024"><path d="M512 90L512 90Q627 90 725 148L725 148Q820 204 876 299L876 299Q934 397 934 512 934 627 876 725L876 725Q820 820 725 876L725 876Q627 934 512 934 397 934 299 876L299 876Q204 820 148 725L148 725Q90 627 90 512 90 397 148 299L148 299Q204 204 299 148L299 148Q397 90 512 90ZM546 366L546 348 478 348 477 368Q476 378 469 384.5 462 391 452 391L452 391 449 391Q439 390 432.5 383 426 376 426 366L426 366 426 348 400 348Q386 348 376 358.5 366 369 366 383L366 383 366 658Q366 673 376 683 386 693 400 693L400 693 624 693Q638 693 648 683 658 673 658 658L658 658 658 383Q658 369 648 358.5 638 348 624 348L624 348 598 348 598 368Q597 378 589 385 581 392 571 391.5 561 391 553.5 383.5 546 376 546 366L546 366ZM435 572L503 572Q511 572 516 577 521 582 521 589.5 521 597 516 602 511 607 503 607L503 607 432 607Q426 606 421.5 600.5 417 595 417.5 588.5 418 582 423 577 428 572 435 572L435 572ZM435 503L589 503Q597 503 602 508 607 513 607 520.5 607 528 602 533 597 538 589 538L589 538 432 538Q426 537 421.5 531.5 417 526 417.5 519.5 418 513 423 508 428 503 435 503L435 503ZM435 435L589 435Q597 435 602 440 607 445 607 452 607 459 602 464 597 469 589 469L589 469 432 469Q426 468 421.5 463 417 458 417.5 451 418 444 423 439.5 428 435 435 435L435 435ZM572 314L572 314Q565 314 560 319 555 324 555 331L555 331 555 366Q555 373 560 378 565 383 572 383 579 383 584 378 589 373 589 366L589 366 589 331Q589 324 584 319 579 314 572 314ZM452 314L452 314Q445 314 440 319 435 324 435 331L435 331 435 366Q435 373 440 378 445 383 452 383 459 383 464 378 469 373 469 366L469 366 469 331Q469 324 464 319 459 314 452 314Z"/></svg>