<?xml version="1.0" encoding="utf-8"?><!DOCTYPE svg PUBLIC "-//W3C//DTD SVG 1.1//EN" "http://www.w3.org/Graphics/SVG/1.1/DTD/svg11.dtd"><svg version="1.1" xmlns="http://www.w3.org/2000/svg" xmlns:xlink="http://www.w3.org/1999/xlink" x="0" y="0" width="48" height="48" viewBox="0 0 1024 1024"><path d="M975 419L634 715Q603 742 562 752.5 521 763 479.5 756 438 749 404 726L404 726 390 715 49 419Q34 407 26 390.5 18 374 18 355.5 18 337 26 320 34 303 49 291L49 291Q77 268 114.5 265.5 152 263 183 283L183 283 195 291 512 567 829 292Q858 268 895 265.5 932 263 964 283L964 283 975 291Q1002 313 1005 347.5 1008 382 985 408L985 408 975 419Z"/></svg>