<?xml version="1.0" encoding="utf-8"?><!DOCTYPE svg PUBLIC "-//W3C//DTD SVG 1.1//EN" "http://www.w3.org/Graphics/SVG/1.1/DTD/svg11.dtd"><svg version="1.1" xmlns="http://www.w3.org/2000/svg" xmlns:xlink="http://www.w3.org/1999/xlink" x="0" y="0" width="48" height="48" viewBox="0 0 1024 1024"><path d="M507 90L507 90Q624 90 723 148L723 148Q820 204 876 301L876 301Q934 400 934 517L934 517Q934 630 876 726L876 726Q820 821 723 876L723 876Q624 934 507 934L507 934Q395 934 298 876L298 876Q203 821 148 726L148 726Q90 629 90 517L90 517Q90 400 148 301L148 301Q203 204 298 148L298 148Q394 90 507 90ZM512 644L512 644Q499 644 489.5 653 480 662 480 675 480 688 489.5 697.5 499 707 512 707 525 707 534.5 697.5 544 688 544 675 544 662 534.5 653 525 644 512 644ZM535 317L535 317 489 317 489 317Q485 317 482.5 319.5 480 322 481 326L481 326 491 600Q491 604 495 604L495 604 529 603Q533 603 533 599L533 599 543 325Q543 322 540.5 319.5 538 317 535 317Z"/></svg>