<?xml version="1.0" encoding="utf-8"?><!DOCTYPE svg PUBLIC "-//W3C//DTD SVG 1.1//EN" "http://www.w3.org/Graphics/SVG/1.1/DTD/svg11.dtd"><svg version="1.1" xmlns="http://www.w3.org/2000/svg" xmlns:xlink="http://www.w3.org/1999/xlink" x="0" y="0" width="48" height="48" viewBox="0 0 1024 1024"><path d="M853 188L171 188 165 188Q154 190 145.5 196.5 137 203 133.5 213.5 130 224 131.5 234.5 133 245 140 253L140 253 404 561 404 786Q404 797 410 807 416 817 426 822L426 822 563 889 568 891Q587 897 603.5 885.5 620 874 620 853L620 853 620 561 884 253Q891 245 892.5 233 894 221 889.5 210.5 885 200 875 194 865 188 853 188L853 188ZM257 267L767 267 550 521 547 525Q540 535 540 546L540 546 540 789 484 761 484 546 483 541Q482 529 474 521L474 521 257 267Z"/></svg>