<?xml version="1.0" encoding="utf-8"?><!DOCTYPE svg PUBLIC "-//W3C//DTD SVG 1.1//EN" "http://www.w3.org/Graphics/SVG/1.1/DTD/svg11.dtd"><svg version="1.1" xmlns="http://www.w3.org/2000/svg" xmlns:xlink="http://www.w3.org/1999/xlink" x="0" y="0" width="48" height="48" viewBox="0 0 1024 1024"><path d="M507 90L507 90Q624 90 723 148L723 148Q820 204 876 301L876 301Q934 400 934 517L934 517Q934 630 876 726L876 726Q820 821 723 876L723 876Q624 934 507 934L507 934Q395 934 298 876L298 876Q203 821 148 726L148 726Q90 629 90 517L90 517Q90 400 148 301L148 301Q203 204 298 148L298 148Q394 90 507 90ZM534 425L533 425 491 425Q487 425 484.5 427.5 482 430 482 433L482 433 489 721Q489 724 491.5 726.5 494 729 498 730L498 730 526 730Q529 730 531.5 727.5 534 725 535 721L535 721 542 434Q542 431 539.5 428 537 425 534 425L534 425ZM512 312L512 312Q502 312 493.5 317 485 322 480.5 330.5 476 339 476 348.5 476 358 480.5 366.5 485 375 493.5 380 502 385 512 385L512 385Q527 385 537.5 374.5 548 364 548 349 548 334 537.5 323 527 312 512 312Z"/></svg>