<?xml version="1.0" encoding="utf-8"?><!DOCTYPE svg PUBLIC "-//W3C//DTD SVG 1.1//EN" "http://www.w3.org/Graphics/SVG/1.1/DTD/svg11.dtd"><svg version="1.1" xmlns="http://www.w3.org/2000/svg" xmlns:xlink="http://www.w3.org/1999/xlink" x="0" y="0" width="48" height="48" viewBox="0 0 1024 1024"><path d="M605 975L309 634Q282 603 271.5 562 261 521 268 479.5 275 438 298 404L298 404 309 390 605 49Q617 34 633.5 26 650 18 668.5 18 687 18 704 26 721 34 733 49L733 49Q756 77 758.5 114.5 761 152 741 183L741 183 733 195 457 512 732 829Q756 858 758.5 895 761 932 741 964L741 964 733 975Q711 1002 676.5 1005 642 1008 616 985L616 985 605 975Z"/></svg>