<?xml version="1.0" encoding="utf-8"?><!DOCTYPE svg PUBLIC "-//W3C//DTD SVG 1.1//EN" "http://www.w3.org/Graphics/SVG/1.1/DTD/svg11.dtd"><svg version="1.1" xmlns="http://www.w3.org/2000/svg" xmlns:xlink="http://www.w3.org/1999/xlink" x="0" y="0" width="48" height="48" viewBox="0 0 1024 1024"><path d="M512 62L512 62Q634 62 739 123L739 123Q841 183 901 285L901 285Q962 390 962 512 962 634 901 739L901 739Q841 841 739 901L739 901Q634 962 512 962 390 962 285 901L285 901Q183 841 123 739L123 739Q62 634 62 512 62 390 123 285L123 285Q183 183 285 123L285 123Q390 62 512 62ZM482 335L478 332Q469 325 457 325.5 445 326 436 335L436 335 433 338Q426 348 427 360 428 372 436 380L436 380 565 509 433 641Q426 651 427 663.5 428 676 437.5 684.5 447 693 460 692.5 473 692 482 683L482 683 622 543Q635 527 634 506.5 633 486 618 471L618 471 482 335Z"/></svg>