<?xml version="1.0" encoding="utf-8"?><!DOCTYPE svg PUBLIC "-//W3C//DTD SVG 1.1//EN" "http://www.w3.org/Graphics/SVG/1.1/DTD/svg11.dtd"><svg version="1.1" xmlns="http://www.w3.org/2000/svg" xmlns:xlink="http://www.w3.org/1999/xlink" x="0" y="0" width="48" height="48" viewBox="0 0 1024 1024"><path d="M512 68L512 68Q391 68 288 128L288 128Q187 187 128 288L128 288Q68 391 68 512 68 633 128 736L128 736Q187 837 288 896L288 896Q391 956 512 956 633 956 736 896L736 896Q837 837 896 736L896 736Q956 633 956 512 956 391 896 288L896 288Q837 187 736 128L736 128Q633 68 512 68ZM512 173L512 173Q604 173 683 219L683 219Q760 264 805 341L805 341Q851 420 851 512 851 604 805 683L805 683Q760 760 683 805L683 805Q604 851 512 851 420 851 341 805L341 805Q264 760 219 683L219 683Q173 604 173 512 173 420 219 341L219 341Q264 264 341 219L341 219Q420 173 512 173ZM328 501L328 501 369 459Q376 453 385.5 453 395 453 402 459L402 459 551 608 493 666Q486 673 476.5 673 467 673 460 666L460 666 328 534Q321 527 321 517.5 321 508 328 501ZM724 402L724 402 683 360Q676 353 666.5 353 657 353 650 360L650 360 402 608 460 666Q467 673 476.5 673 486 673 493 666L493 666 724 435Q731 428 731 418 731 408 724 402ZM493 666L551 608 477 534 402 608 460 666Q467 673 476.5 673 486 673 493 666L493 666Z"/></svg>