<?xml version="1.0" encoding="utf-8"?><!DOCTYPE svg PUBLIC "-//W3C//DTD SVG 1.1//EN" "http://www.w3.org/Graphics/SVG/1.1/DTD/svg11.dtd"><svg version="1.1" xmlns="http://www.w3.org/2000/svg" xmlns:xlink="http://www.w3.org/1999/xlink" x="0" y="0" width="48" height="48" viewBox="0 0 1024 1024"><path d="M512 68L512 68Q391 68 288 128L288 128Q187 187 128 288L128 288Q68 391 68 512 68 633 128 736L128 736Q187 837 288 896L288 896Q391 956 512 956 633 956 736 896L736 896Q837 837 896 736L896 736Q956 633 956 512 956 391 896 288L896 288Q837 187 736 128L736 128Q633 68 512 68ZM512 173L512 173Q604 173 683 219L683 219Q760 264 805 341L805 341Q851 420 851 512 851 604 805 683L805 683Q760 760 683 805L683 805Q604 851 512 851 420 851 341 805L341 805Q264 760 219 683L219 683Q173 604 173 512 173 420 219 341L219 341Q264 264 341 219L341 219Q420 173 512 173ZM471 284L471 284 530 284Q539 284 546 291 553 298 553 307L553 307 553 576 471 576Q461 576 454.5 569.5 448 563 448 553L448 553 448 307Q448 298 454.5 291 461 284 471 284ZM705 553L705 553 705 494Q705 485 698 478 691 471 681 471L681 471 448 471 448 553Q448 563 454.5 569.5 461 576 471 576L471 576 681 576Q691 576 698 569.5 705 563 705 553ZM471 576L553 576 553 471 448 471 448 553Q448 563 454.5 569.5 461 576 471 576L471 576Z"/></svg>