<?xml version="1.0" encoding="utf-8"?><!DOCTYPE svg PUBLIC "-//W3C//DTD SVG 1.1//EN" "http://www.w3.org/Graphics/SVG/1.1/DTD/svg11.dtd"><svg version="1.1" xmlns="http://www.w3.org/2000/svg" xmlns:xlink="http://www.w3.org/1999/xlink" x="0" y="0" width="48" height="48" viewBox="0 0 1024 1024"><path d="M366 648L460 742Q551 695 623 623 695 551 742 460L742 460 648 366Q640 358 637 346 634 334 638 323L638 323Q662 251 662 170L662 170Q662 153 674.5 140.5 687 128 704 128L704 128 853 128Q870 128 882.5 140.5 895 153 895 170L895 170Q895 318 839 453L839 453Q784 583 683.5 683.5 583 784 453 839L453 839Q318 896 170 896L170 896Q153 896 140.5 883.5 128 871 128 854L128 854 128 704Q128 687 140 674.5 152 662 170 662L170 662Q247 662 322 638L322 638Q334 634 345.5 636.5 357 639 366 648L366 648Z"/></svg>