<?xml version="1.0" encoding="utf-8"?><!DOCTYPE svg PUBLIC "-//W3C//DTD SVG 1.1//EN" "http://www.w3.org/Graphics/SVG/1.1/DTD/svg11.dtd"><svg version="1.1" xmlns="http://www.w3.org/2000/svg" xmlns:xlink="http://www.w3.org/1999/xlink" x="0" y="0" width="48" height="48" viewBox="0 0 1024 1024"><path d="M107 640L192 640 192 747Q192 780 215 804.5 238 829 271 832L271 832 384 832 384 917 277 917Q233 917 194.5 895.5 156 874 132.5 837 109 800 107 755L107 755 107 640ZM832 640L917 640 917 747Q917 791 895.5 829.5 874 868 837 891.5 800 915 755 917L755 917 640 917 640 832 747 832Q780 832 804.5 809 829 786 832 753L832 753 832 640ZM269 107L384 107 384 192 277 192Q244 192 219.5 215 195 238 192 271L192 271 192 384 107 384 107 277Q107 233 128.5 194.5 150 156 187 132.5 224 109 269 107L269 107ZM640 107L747 107Q791 107 829.5 128.5 868 150 891.5 187 915 224 917 269L917 269 917 384 832 384 832 277Q832 244 809 219.5 786 195 753 192L753 192 640 192 640 107ZM85 469L85 469ZM107 469L107 469 917 469Q939 469 939 491L939 491 939 533Q939 555 917 555L917 555 107 555Q85 555 85 533L85 533 85 491Q85 469 107 469Z"/></svg>