<svg xmlns="http://www.w3.org/2000/svg" xmlns:xlink="http://www.w3.org/1999/xlink" fill="none" version="1.1" width="48" height="48" viewBox="0 0 16.178524017333984 16.178524017333984"><g><path d="M7.5,15C9.27084,15,10.8983,14.3863,12.1814,13.3599L14.7559,15.9344C15.0814,16.2599,15.609,16.2599,15.9344,15.9344C16.2599,15.609,16.2599,15.0814,15.9344,14.7559L13.3599,12.1814C14.3863,10.8983,15,9.27084,15,7.5C15,3.35786,11.6421,0,7.5,0C3.35786,0,0,3.35786,0,7.5C0,11.6421,3.35786,15,7.5,15ZM7.5,13.125C4.3934,13.125,1.875,10.6066,1.875,7.5C1.875,4.3934,4.3934,1.875,7.5,1.875C10.6066,1.875,13.125,4.3934,13.125,7.5C13.125,10.6066,10.6066,13.125,7.5,13.125Z" fill="#000000" fill-opacity="1"/></g></svg>