<?xml version="1.0" encoding="utf-8"?><!DOCTYPE svg PUBLIC "-//W3C//DTD SVG 1.1//EN" "http://www.w3.org/Graphics/SVG/1.1/DTD/svg11.dtd"><svg version="1.1" xmlns="http://www.w3.org/2000/svg" xmlns:xlink="http://www.w3.org/1999/xlink" x="0" y="0" width="48" height="48" viewBox="0 0 1024 1024"><path d="M512 90L512 90Q627 90 725 148L725 148Q820 204 876 299L876 299Q934 397 934 512 934 627 876 725L876 725Q820 820 725 876L725 876Q627 934 512 934 397 934 299 876L299 876Q204 820 148 725L148 725Q90 627 90 512 90 397 148 299L148 299Q204 204 299 148L299 148Q397 90 512 90ZM731 388L728 384Q715 374 699 375 683 376 672 388L672 388 463 597 370 504Q356 493 339.5 494.5 323 496 312 508.5 301 521 301.5 538 302 555 314 567L314 567 422 675Q441 691 465.5 689.5 490 688 507 671L507 671 734 444Q744 431 743.5 415 743 399 731 388L731 388Z"/></svg>