<?xml version="1.0" encoding="utf-8"?><!DOCTYPE svg PUBLIC "-//W3C//DTD SVG 1.1//EN" "http://www.w3.org/Graphics/SVG/1.1/DTD/svg11.dtd"><svg version="1.1" xmlns="http://www.w3.org/2000/svg" xmlns:xlink="http://www.w3.org/1999/xlink" x="0" y="0" width="48" height="48" viewBox="0 0 1024 1024"><path d="M587 100L887 100Q901 99 911 108 921 117 924 130L924 130 924 137 924 437Q925 452 915 462.5 905 473 890.5 474.5 876 476 864.5 467 853 458 850 444L850 444 850 437 849 174 587 174Q573 175 563 166 553 157 550 144L550 144 550 137Q549 123 558 113 567 103 580 100L580 100 587 100ZM199 100L387 100Q402 99 412.5 109 423 119 424.5 133.5 426 148 417 159.5 408 171 394 174L394 174 387 174 199 174Q191 175 184 180.5 177 186 175 194L175 194 175 199 175 825Q175 833 180.5 840 186 847 194 849L194 849 199 849 825 849Q833 849 840 843.5 847 838 849 830L849 830 850 825 850 626Q849 611 859 600.5 869 590 883.5 588.5 898 587 909.5 596 921 605 924 619L924 619 924 626 924 825Q924 863 898 891.5 872 920 834 924L834 924 825 924 199 924Q161 925 132.5 899 104 873 100 834L100 834 100 825 100 199Q100 161 126 132.5 152 104 190 100L190 100 199 100ZM523 448L842 129Q852 119 866.5 118.5 881 118 892 127 903 136 905 150.5 907 165 899 177L899 177 895 182 576 501Q566 511 551.5 512 537 513 525.5 503.5 514 494 512 479.5 510 465 519 453L519 453 523 448Z"/></svg>