<?xml version="1.0" encoding="utf-8"?><!DOCTYPE svg PUBLIC "-//W3C//DTD SVG 1.1//EN" "http://www.w3.org/Graphics/SVG/1.1/DTD/svg11.dtd"><svg version="1.1" xmlns="http://www.w3.org/2000/svg" xmlns:xlink="http://www.w3.org/1999/xlink" x="0" y="0" width="48" height="48" viewBox="0 0 1024 1024"><path d="M507 90L507 90Q624 90 723 148L723 148Q820 204 876 301L876 301Q934 400 934 517L934 517Q934 630 876 726L876 726Q820 821 723 876L723 876Q624 934 507 934L507 934Q395 934 298 876L298 876Q203 821 148 726L148 726Q90 629 90 517L90 517Q90 400 148 301L148 301Q203 204 298 148L298 148Q394 90 507 90ZM747 381L729 364Q726 361 723 363L723 363 448 593Q444 595 440 593L440 593 327 506Q326 505 324 505 322 505 321 507L321 507 302 533Q300 537 303 540L303 540 441 683Q442 684 444 684 446 684 447 683L447 683 747 388Q749 386 749 384.5 749 383 747 381L747 381Z"/></svg>