<?xml version="1.0" encoding="utf-8"?><!DOCTYPE svg PUBLIC "-//W3C//DTD SVG 1.1//EN" "http://www.w3.org/Graphics/SVG/1.1/DTD/svg11.dtd"><svg version="1.1" xmlns="http://www.w3.org/2000/svg" xmlns:xlink="http://www.w3.org/1999/xlink" x="0" y="0" width="48" height="48" viewBox="0 0 1024 1024"><path d="M413 62L701 62 701 157 605 157 605 207Q698 219 775 271.5 852 324 896 405L896 405Q941 488 941 583L941 583Q941 686 888 774L888 774Q837 860 750 910L750 910Q661 962 556.5 962 452 962 363 910L363 910Q276 860 225 774L225 774Q172 686 172 583L172 583Q172 524 190 468L190 468 168 460 151 504 106 487 124 443 124 443 175 310 220 327 203 371 231 382Q277 309 350 263.5 423 218 509 207L509 207 509 157 413 157 413 62ZM604 583L604 394 557 394 557 583 365 583 365 630 605 630 605 583 604 583Z"/></svg>