<?xml version="1.0" encoding="utf-8"?><!DOCTYPE svg PUBLIC "-//W3C//DTD SVG 1.1//EN" "http://www.w3.org/Graphics/SVG/1.1/DTD/svg11.dtd"><svg version="1.1" xmlns="http://www.w3.org/2000/svg" xmlns:xlink="http://www.w3.org/1999/xlink" x="0" y="0" width="48" height="48" viewBox="0 0 1024 1024"><path d="M565 814L565 814 927 331Q938 316 939.5 297.5 941 279 933 262 925 245 909 235.5 893 226 874 226L874 226 150 226Q131 226 115 235.5 99 245 91 262 83 279 84.5 297.5 86 316 97 331L97 331 459 814Q469 826 482.5 833 496 840 512 840 528 840 541.5 833 555 826 565 814Z"/></svg>