<?xml version="1.0" encoding="utf-8"?><!DOCTYPE svg PUBLIC "-//W3C//DTD SVG 1.1//EN" "http://www.w3.org/Graphics/SVG/1.1/DTD/svg11.dtd"><svg version="1.1" xmlns="http://www.w3.org/2000/svg" xmlns:xlink="http://www.w3.org/1999/xlink" x="0" y="0" width="48" height="48" viewBox="0 0 1024 1024"><path d="M49 605L390 309Q421 282 462 271.5 503 261 544.5 268 586 275 620 298L620 298 634 309 975 605Q990 617 998 633.5 1006 650 1006 668.5 1006 687 998 704 990 721 975 733L975 733Q947 756 909.5 758.5 872 761 841 741L841 741 829 733 512 457 195 732Q166 756 129 758.5 92 761 60 741L60 741 49 733Q22 711 19 676.5 16 642 39 616L39 616 49 605Z"/></svg>