<?xml version="1.0" encoding="utf-8"?><!DOCTYPE svg PUBLIC "-//W3C//DTD SVG 1.1//EN" "http://www.w3.org/Graphics/SVG/1.1/DTD/svg11.dtd"><svg version="1.1" xmlns="http://www.w3.org/2000/svg" xmlns:xlink="http://www.w3.org/1999/xlink" x="0" y="0" width="48" height="48" viewBox="0 0 1024 1024"><path d="M405 171L405 171Q318 171 244 206L244 206Q171 240 128 298.5 85 357 85 427L85 427Q85 486 116.5 538 148 590 204 625L204 625 171 725 277 661Q339 683 401 683L401 683Q384 640 384 597L384 597Q384 528 424 469 464 410 532 376L532 376Q601 341 683 341L683 341Q699 341 707 343L707 343Q685 293 640.5 254 596 215 536 193L536 193Q474 171 405 171ZM277 277L277 277Q295 277 307.5 289.5 320 302 320 320 320 338 307.5 350.5 295 363 277.5 363 260 363 247.5 350.5 235 338 235 320 235 302 247.5 289.5 260 277 277 277ZM491 277L491 277Q508 277 520.5 289.5 533 302 533 320 533 338 520.5 350.5 508 363 490.5 363 473 363 460.5 350.5 448 338 448 320 448 302 460.5 289.5 473 277 491 277ZM683 384L683 384Q613 384 554.5 412.5 496 441 461.5 490 427 539 427 597 427 655 461.5 704 496 753 554.5 782 613 811 683 811L683 811Q727 811 764 800L764 800 853 853 827 774Q878 744 908.5 697.5 939 651 939 597L939 597Q939 539 904.5 490 870 441 811 412.5 752 384 683 384ZM597 491L597 491Q615 491 627.5 503.5 640 516 640 533.5 640 551 627.5 563.5 615 576 597.5 576 580 576 567.5 563.5 555 551 555 533.5 555 516 567.5 503.5 580 491 597 491ZM768 491L768 491Q786 491 798.5 503.5 811 516 811 533.5 811 551 798.5 563.5 786 576 768 576 750 576 737.5 563.5 725 551 725 533.5 725 516 737.5 503.5 750 491 768 491Z"/></svg>