<?xml version="1.0" encoding="utf-8"?><!DOCTYPE svg PUBLIC "-//W3C//DTD SVG 1.1//EN" "http://www.w3.org/Graphics/SVG/1.1/DTD/svg11.dtd"><svg version="1.1" xmlns="http://www.w3.org/2000/svg" xmlns:xlink="http://www.w3.org/1999/xlink" x="0" y="0" width="48" height="48" viewBox="0 0 1024 1024"><path d="M813 934L813 934 211 934Q178 934 150.5 917.5 123 901 106.5 873.5 90 846 90 813L90 813 90 211Q90 178 106.5 150.5 123 123 150.5 106.5 178 90 211 90L211 90 813 90Q846 90 873.5 106.5 901 123 917.5 150.5 934 178 934 211L934 211 934 813Q934 846 917.5 873.5 901 901 873.5 917.5 846 934 813 934ZM698 732L698 732 756 764 740 711Q775 684 794 652.5 813 621 813 589L813 589Q813 548 789 512.5 765 477 724 456 683 435 635 435 587 435 546 456 505 477 481 512 457 547 457 589 457 631 481 666 505 701 546 722 587 743 635 743L635 743Q667 741 698 732L698 732ZM429 271L429 271Q370 271 319.5 295 269 319 240 360 211 401 211 450L211 450Q211 533 298 591L298 591 276 654 352 618 366 620Q397 627 429 628L429 628Q438 628 449 627L449 627Q443 606 442 583L442 583Q443 550 457 519 471 488 496 466L496 466Q524 442 558 429.5 592 417 628 417L628 417Q638 417 649 418L649 418Q640 377 608 343 576 309 528.5 290 481 271 429 271ZM693 563L693 563Q684 563 678 556.5 672 550 672 541.5 672 533 678 526.5 684 520 693 520L693 520Q699 519 705.5 521.5 712 524 715.5 529.5 719 535 719 541.5 719 548 715.5 553.5 712 559 705.5 561.5 699 564 693 563ZM578 563L578 563Q569 563 562.5 556.5 556 550 556 541.5 556 533 562.5 526.5 569 520 578 520L578 520Q584 519 590 521.5 596 524 600 529.5 604 535 604 541.5 604 548 600 553.5 596 559 590 561.5 584 564 578 563ZM511 413L511 413Q498 413 488 405.5 478 398 478 386.5 478 375 488 367.5 498 360 510 359.5 522 359 530 367 538 375 538 386.5 538 398 530 406 522 414 511 413ZM358 413L358 413Q345 413 335 405.5 325 398 325 386.5 325 375 335 367.5 345 360 358 360L358 360Q373 360 381 373.5 389 387 381 400 373 413 358 413Z"/></svg>